<?xml version="1.0" encoding="UTF-8"?>
<svg version="1.1" xmlns="http://www.w3.org/2000/svg" width="220" height="222">
<path d="M0 0 C72.6 0 145.2 0 220 0 C220 73.26 220 146.52 220 222 C147.4 222 74.8 222 0 222 C0 148.74 0 75.48 0 0 Z " fill="#FEFEFE" transform="translate(0,0)"/>
<path d="M0 0 C14.75195964 12.94109034 26.26745186 29.86099914 29.0625 49.625 C30.6118191 73.7041645 27.94266281 94.1812635 12.046875 113.3828125 C11.06460938 114.49269531 11.06460938 114.49269531 10.0625 115.625 C9.28390625 116.50929687 8.5053125 117.39359375 7.703125 118.3046875 C-5.80331258 132.73020219 -24.3012992 141.98018698 -44.1328125 143.23046875 C-67.51399184 143.99552195 -87.94424393 139.1989613 -105.5 123.0625 C-107.35322548 121.28405058 -109.14520156 119.46677907 -110.9375 117.625 C-111.95070313 116.60792969 -111.95070313 116.60792969 -112.984375 115.5703125 C-121.83668507 106.13045973 -126.43119508 94.86423664 -129.9375 82.625 C-130.30488281 81.38234375 -130.67226562 80.1396875 -131.05078125 78.859375 C-136.00232862 58.48308181 -130.47464765 37.16852331 -119.9375 19.625 C-117.78401141 16.4376563 -115.46032859 13.52382709 -112.9375 10.625 C-112.504375 10.05007812 -112.07125 9.47515625 -111.625 8.8828125 C-100.86341157 -5.01757255 -82.42351444 -14.36430562 -65.26953125 -16.921875 C-41.61804311 -19.66750547 -18.96112272 -14.90554925 0 0 Z " fill="#FCFCFC" transform="translate(163.9375,51.375)"/>
<path d="M0 0 C14.75195964 12.94109034 26.26745186 29.86099914 29.0625 49.625 C30.6118191 73.7041645 27.94266281 94.1812635 12.046875 113.3828125 C11.06460938 114.49269531 11.06460938 114.49269531 10.0625 115.625 C9.28390625 116.50929687 8.5053125 117.39359375 7.703125 118.3046875 C-5.80331258 132.73020219 -24.3012992 141.98018698 -44.1328125 143.23046875 C-67.51399184 143.99552195 -87.94424393 139.1989613 -105.5 123.0625 C-107.35322548 121.28405058 -109.14520156 119.46677907 -110.9375 117.625 C-111.95070313 116.60792969 -111.95070313 116.60792969 -112.984375 115.5703125 C-121.83668507 106.13045973 -126.43119508 94.86423664 -129.9375 82.625 C-130.30488281 81.38234375 -130.67226562 80.1396875 -131.05078125 78.859375 C-136.00232862 58.48308181 -130.47464765 37.16852331 -119.9375 19.625 C-117.78401141 16.4376563 -115.46032859 13.52382709 -112.9375 10.625 C-112.504375 10.05007812 -112.07125 9.47515625 -111.625 8.8828125 C-100.86341157 -5.01757255 -82.42351444 -14.36430562 -65.26953125 -16.921875 C-41.61804311 -19.66750547 -18.96112272 -14.90554925 0 0 Z M-103.9375 13.625 C-118.38772511 30.05560234 -124.27360033 48.91336969 -122.9375 70.625 C-121.37424938 85.61657345 -115.08996148 99.45077045 -104.9375 110.625 C-104.28394531 111.37007813 -103.63039063 112.11515625 -102.95703125 112.8828125 C-92.4719683 124.15091294 -76.9929506 132.71260346 -61.40478516 133.80200195 C-40.0137747 134.29144075 -21.14222984 131.7430894 -4.5 117.1875 C-2.96019801 115.68587492 -1.43821023 114.16569363 0.0625 112.625 C1.10470703 111.63113281 1.10470703 111.63113281 2.16796875 110.6171875 C15.5927654 96.95869033 20.36187221 78.03150567 20.37719727 59.46264648 C20.06971781 39.45101048 10.66418897 22.74207738 -3.5 9 C-32.76353582 -16.31990465 -77.29512415 -13.92563866 -103.9375 13.625 Z " fill="#41484B" transform="translate(163.9375,51.375)"/>
<path d="M0 0 C3.0061658 26.47373214 3.0061658 26.47373214 -1.76806641 33.66210938 C-7.23094651 38.76601037 -14.46883096 42.90764496 -22.06640625 43.0625 C-26.29555203 41.5307721 -29.98798301 39.34752961 -33.8125 37 C-34.58787109 36.5359375 -35.36324219 36.071875 -36.16210938 35.59375 C-41.79958791 32.20041209 -41.79958791 32.20041209 -43 31 C-43.08783542 28.78144736 -43.10694609 26.56011504 -43.09765625 24.33984375 C-43.0962413 23.67537735 -43.09482635 23.01091095 -43.09336853 22.3263092 C-43.08775518 20.19666101 -43.07520054 18.06711661 -43.0625 15.9375 C-43.05748671 14.49674631 -43.05292351 13.05599097 -43.04882812 11.61523438 C-43.03778145 8.07678898 -43.02050792 4.53840461 -43 1 C-40.05954109 1.61318781 -37.84180743 2.53588466 -35.28515625 4.1015625 C-34.59873047 4.50890625 -33.91230469 4.91625 -33.20507812 5.3359375 C-31.7760902 6.19567499 -30.35157616 7.06289259 -28.93164062 7.9375 C-24.96810971 10.30326409 -24.96810971 10.30326409 -20.5078125 11.08984375 C-16.68644813 9.42915736 -13.28727521 7.22361908 -9.8125 4.9375 C-8.3840884 4.00515298 -6.95321206 3.07656775 -5.51953125 2.15234375 C-4.57750854 1.5334729 -4.57750854 1.5334729 -3.61645508 0.90209961 C-2 0 -2 0 0 0 Z " fill="#C9CAC8" transform="translate(134,127)"/>
<path d="M0 0 C6.18397275 2.16833023 12.61444162 4.99514762 17 10 C19.48034775 16.00684639 19.03892624 22.90597716 17 29 C14.51931196 32.38839434 11.82376544 33.45470246 8 35 C6.23826997 36.12771509 4.48803171 37.27359288 2.75 38.4375 C0.21420652 40.09073791 -1.24042295 41.00910452 -4.28125 40.97265625 C-8.29462799 39.53683567 -11.68387327 37.30900292 -15.25 35 C-15.9821875 34.5359375 -16.714375 34.071875 -17.46875 33.59375 C-22.8067602 30.1932398 -22.8067602 30.1932398 -24 29 C-25.12521752 22.9109412 -25.65489335 16.0087601 -24 10 C-20.84255626 5.70397459 -15.78866453 3.97609603 -11 2 C-10.15824219 1.4225 -9.31648438 0.845 -8.44921875 0.25 C-5.08909139 -1.46489754 -3.61364596 -1.0362021 0 0 Z " fill="#A6A7A5" transform="translate(116,61)"/>
<path d="M0 0 C5.48844059 1.72804748 10.05400456 4.27359171 14.87695312 7.34179688 C17.44903203 8.89405917 19.41188887 9.9943811 22.453125 10.0234375 C26.11942115 8.55017126 29.35585654 6.54764857 32.6875 4.4375 C39.75113809 0 39.75113809 0 42 0 C44.54707486 22.35058187 44.54707486 22.35058187 40.47802734 28.18066406 C36.741223 31.46769408 32.45316999 33.5437833 27.80932617 35.26757812 C25.71366894 36.04502507 25.71366894 36.04502507 23 38 C18.45281414 37.73526658 15.27314655 35.53170329 11.5 33.125 C10.3965625 32.42632812 9.293125 31.72765625 8.15625 31.0078125 C7.1146875 30.34523438 6.073125 29.68265625 5 29 C3.67995972 28.38040405 3.67995972 28.38040405 2.33325195 27.74829102 C0 26 0 26 -0.56762695 23.27270508 C-0.54144287 22.19915771 -0.51525879 21.12561035 -0.48828125 20.01953125 C-0.47216797 18.85615234 -0.45605469 17.69277344 -0.43945312 16.49414062 C-0.39755859 15.27919922 -0.35566406 14.06425781 -0.3125 12.8125 C-0.27866211 10.97268555 -0.27866211 10.97268555 -0.24414062 9.09570312 C-0.18513053 6.06258441 -0.10284592 3.03189778 0 0 Z " fill="#AEAEAE" transform="translate(91,96)"/>
<path d="M0 0 C15.34878137 7.08144659 24.11687633 23.83443239 30.12890625 38.8125 C36.10543912 55.90480658 35.5479096 78.54032585 28 95 C25.85040564 99.44575197 23.52342363 103.7530853 21 108 C19 108 19 108 16.8125 105.9375 C14.4072102 102.0392717 15.06937114 100.43524096 16 96 C17.11098112 92.5877313 18.47846873 89.28414774 19.828125 85.9609375 C25.63189711 71.22390833 24.60041837 52.63708163 19 38 C13.16449839 24.9107483 4.8494415 15.20423931 -6 6 C-4 4 -2 2 0 0 Z " fill="#3F4748" transform="translate(160,50)"/>
<path d="M0 0 C2.41396234 2.89675481 4.38617243 5.59787701 6 9 C-6.04597202 26.73858327 -23.02134738 38.39892158 -43.88183594 43.43603516 C-59.75733407 46.30734746 -78.16096243 45.87709966 -93 39 C-94.9453125 37.45703125 -94.9453125 37.45703125 -96 36 C-95.75 34 -95.75 34 -95 32 C-94.67 31.01 -94.34 30.02 -94 29 C-89.50931741 29.57572854 -85.48837526 30.76885017 -81.24609375 32.28125 C-63.85364938 37.8468322 -43.07373728 34.46927691 -27.1875 26.3125 C-16.26914388 20.34860945 -5.89448174 11.09549504 0 0 Z " fill="#424A4C" transform="translate(174,150)"/>
<path d="M0 0 C2.92001029 1.40978384 5.63603487 3.08145422 8.375 4.8125 C9.11105469 5.25142578 9.84710938 5.69035156 10.60546875 6.14257812 C11.30027344 6.57634766 11.99507812 7.01011719 12.7109375 7.45703125 C13.65912354 8.0444812 13.65912354 8.0444812 14.62646484 8.64379883 C15.07973145 9.09134521 15.53299805 9.5388916 16 10 C16 11.32 16 12.64 16 14 C13.36 14.33 10.72 14.66 8 15 C10.31 15 12.62 15 15 15 C15 15.66 15 16.32 15 17 C6.585 17.495 6.585 17.495 -2 18 C3.61 18 9.22 18 15 18 C15 18.66 15 19.32 15 20 C7.12652596 21.08806442 -0.62279003 21.11529603 -8.5625 21.0625 C-10.50479492 21.05573242 -10.50479492 21.05573242 -12.48632812 21.04882812 C-15.657601 21.03712601 -18.82877546 21.02073113 -22 21 C-22 20.34 -22 19.68 -22 19 C-21.34 18.67 -20.68 18.34 -20 18 C-20.66 18 -21.32 18 -22 18 C-22 17.34 -22 16.68 -22 16 C-16.06 16 -10.12 16 -4 16 C-4 15.34 -4 14.68 -4 14 C-9.94 14 -15.88 14 -22 14 C-22 12.35 -22 10.7 -22 9 C-20.20703125 7.234375 -20.20703125 7.234375 -17.8125 5.75 C-17.03519531 5.24984375 -16.25789063 4.7496875 -15.45703125 4.234375 C-12.94436924 2.97205195 -10.76963985 2.41323223 -8 2 C-8 1.34 -8 0.68 -8 0 C-4.97497704 -1.51251148 -3.27004794 -0.83066735 0 0 Z " fill="#C1C1C0" transform="translate(116,63)"/>
<path d="M0 0 C1.04569821 7.2129518 2.12273384 14.91588577 0 22 C-4.16375669 27.21071652 -10.8079623 29.90272111 -17 32 C-17.67571045 32.23404541 -18.3514209 32.46809082 -19.04760742 32.70922852 C-22.58025679 33.23534899 -25.27832949 30.56784796 -28.0625 28.625 C-32.77476309 25.33390204 -32.77476309 25.33390204 -38 23 C-38 21.68 -38 20.36 -38 19 C-37.01 19 -36.02 19 -35 19 C-35 18.01 -35 17.02 -35 16 C-33.35 15.67 -31.7 15.34 -30 15 C-30.33 15.99 -30.66 16.98 -31 18 C-29.68 18 -28.36 18 -27 18 C-26.67 17.01 -26.34 16.02 -26 15 C-25.01 15 -24.02 15 -23 15 C-23 15.99 -23 16.98 -23 18 C-23.66 18 -24.32 18 -25 18 C-25 18.66 -25 19.32 -25 20 C-24.34 20 -23.68 20 -23 20 C-23 21.32 -23 22.64 -23 24 C-22.01 23.34 -21.02 22.68 -20 22 C-19.01 22 -18.02 22 -17 22 C-16.67 22.33 -16.34 22.66 -16 23 C-15.34 22.67 -14.68 22.34 -14 22 C-14 21.34 -14 20.68 -14 20 C-15.65 19.67 -17.3 19.34 -19 19 C-19.33 19.66 -19.66 20.32 -20 21 C-20.33 19.68 -20.66 18.36 -21 17 C-19.54182203 16.83197949 -18.0834516 16.66562857 -16.625 16.5 C-15.81289062 16.4071875 -15.00078125 16.314375 -14.1640625 16.21875 C-12 16 -12 16 -10 16 C-8.29006566 14.3777546 -6.62652316 12.70586575 -5 11 C-4 10 -3 9 -2 8 C-2.99 8 -3.98 8 -5 8 C-4.67 6.68 -4.34 5.36 -4 4 C-4.66 3.67 -5.32 3.34 -6 3 C-2.25 0 -2.25 0 0 0 Z " fill="#BEBDBA" transform="translate(132,99)"/>
<path d="M0 0 C12.21 0 24.42 0 37 0 C36 5 36 5 34.51293945 6.51733398 C32.45813357 7.84644824 30.40154502 9.16260893 28.3125 10.4375 C27.60416016 10.90865234 26.89582031 11.37980469 26.16601562 11.86523438 C20.89784174 15.14872225 20.89784174 15.14872225 16.81640625 14.47265625 C15.88699219 13.98667969 14.95757812 13.50070313 14 13 C13.08476563 12.525625 12.16953125 12.05125 11.2265625 11.5625 C10.36804688 11.046875 9.50953125 10.53125 8.625 10 C7.75101562 9.484375 6.87703125 8.96875 5.9765625 8.4375 C5.32429688 7.963125 4.67203125 7.48875 4 7 C4 6.34 4 5.68 4 5 C2.68 5 1.36 5 0 5 C0 3.35 0 1.7 0 0 Z " fill="#C7C8C7" transform="translate(94,85)"/>
<path d="M0 0 C3.0061658 26.47373214 3.0061658 26.47373214 -1.76806641 33.66210938 C-7.23094651 38.76601037 -14.46883096 42.90764496 -22.06640625 43.0625 C-26.29555203 41.5307721 -29.98798301 39.34752961 -33.8125 37 C-34.58787109 36.5359375 -35.36324219 36.071875 -36.16210938 35.59375 C-41.79958791 32.20041209 -41.79958791 32.20041209 -43 31 C-43.08783542 28.78144736 -43.10694609 26.56011504 -43.09765625 24.33984375 C-43.0962413 23.67537735 -43.09482635 23.01091095 -43.09336853 22.3263092 C-43.08775518 20.19666101 -43.07520054 18.06711661 -43.0625 15.9375 C-43.05748671 14.49674631 -43.05292351 13.05599097 -43.04882812 11.61523438 C-43.03778145 8.07678898 -43.02050792 4.53840461 -43 1 C-40.05954109 1.61318781 -37.84180743 2.53588466 -35.28515625 4.1015625 C-34.59873047 4.50890625 -33.91230469 4.91625 -33.20507812 5.3359375 C-31.7760902 6.19567499 -30.35157616 7.06289259 -28.93164062 7.9375 C-24.96810971 10.30326409 -24.96810971 10.30326409 -20.5078125 11.08984375 C-16.68644813 9.42915736 -13.28727521 7.22361908 -9.8125 4.9375 C-8.3840884 4.00515298 -6.95321206 3.07656775 -5.51953125 2.15234375 C-4.57750854 1.5334729 -4.57750854 1.5334729 -3.61645508 0.90209961 C-2 0 -2 0 0 0 Z M-41 4 C-43.0227962 18.41063552 -43.0227962 18.41063552 -39.8046875 31.96826172 C-36.4148467 35.15927532 -32.37202646 36.51873898 -28 38 C-27.13761719 38.56847656 -26.27523437 39.13695312 -25.38671875 39.72265625 C-23.11351685 41.19968832 -23.11351685 41.19968832 -20.70703125 40.90234375 C-19.36705078 40.45568359 -19.36705078 40.45568359 -18 40 C-17.37528809 39.79777832 -16.75057617 39.59555664 -16.10693359 39.38720703 C-10.63837749 37.40802558 -5.33436764 34.9168535 -2 30 C0.0557352 21.56016345 -1.02614107 12.54561207 -2 4 C-7.69158259 5.67100115 -12.13823985 8.45171388 -17.09765625 11.63671875 C-20 13 -20 13 -22.421875 12.9609375 C-25.90560581 11.66245602 -29.01857592 9.85474874 -32.1875 7.9375 C-36.32297894 5.12358966 -36.32297894 5.12358966 -41 4 Z " fill="#5A6163" transform="translate(134,127)"/>
<path d="M0 0 C5.48844059 1.72804748 10.05400456 4.27359171 14.87695312 7.34179688 C17.44903203 8.89405917 19.41188887 9.9943811 22.453125 10.0234375 C26.11942115 8.55017126 29.35585654 6.54764857 32.6875 4.4375 C39.75113809 0 39.75113809 0 42 0 C44.54707486 22.35058187 44.54707486 22.35058187 40.47802734 28.18066406 C36.741223 31.46769408 32.45316999 33.5437833 27.80932617 35.26757812 C25.71366894 36.04502507 25.71366894 36.04502507 23 38 C18.45281414 37.73526658 15.27314655 35.53170329 11.5 33.125 C10.3965625 32.42632812 9.293125 31.72765625 8.15625 31.0078125 C7.1146875 30.34523438 6.073125 29.68265625 5 29 C3.67995972 28.38040405 3.67995972 28.38040405 2.33325195 27.74829102 C0 26 0 26 -0.56762695 23.27270508 C-0.54144287 22.19915771 -0.51525879 21.12561035 -0.48828125 20.01953125 C-0.47216797 18.85615234 -0.45605469 17.69277344 -0.43945312 16.49414062 C-0.39755859 15.27919922 -0.35566406 14.06425781 -0.3125 12.8125 C-0.27866211 10.97268555 -0.27866211 10.97268555 -0.24414062 9.09570312 C-0.18513053 6.06258441 -0.10284592 3.03189778 0 0 Z M2 3 C0.95430179 10.2129518 -0.12273384 17.91588577 2 25 C6.16375669 30.21071652 12.8079623 32.90272111 19 35 C19.99894287 35.35783569 19.99894287 35.35783569 21.01806641 35.72290039 C23.65438341 36.09149115 24.61650553 35.39164798 26.8203125 33.9453125 C27.52027344 33.49542969 28.22023438 33.04554688 28.94140625 32.58203125 C30.02228516 31.86080078 30.02228516 31.86080078 31.125 31.125 C32.56485997 30.18972812 34.00495332 29.2548154 35.4453125 28.3203125 C36.07969238 27.90023926 36.71407227 27.48016602 37.36767578 27.04736328 C39 26 39 26 41 25 C41 17.74 41 10.48 41 3 C36.10255762 4.95897695 32.09352993 7.43272381 27.81640625 10.4296875 C26.15625 11.515625 26.15625 11.515625 23 13 C20.40234375 12.421875 20.40234375 12.421875 18 11 C17.18660156 10.525625 16.37320313 10.05125 15.53515625 9.5625 C13.88857936 8.52200908 12.24274351 7.48034454 10.59765625 6.4375 C7.80329995 4.89114944 5.05101822 3.92374351 2 3 Z " fill="#41494B" transform="translate(91,96)"/>
<path d="M0 0 C2.41396234 2.89675481 4.38617243 5.59787701 6 9 C1.13998705 16.15672794 -4.81402692 22.01215417 -11 28 C-13.5 25.75 -13.5 25.75 -16 23 C-16 19 -16 19 -13.76953125 16.484375 C-12.79126764 15.56496437 -11.80514724 14.65386231 -10.8125 13.75 C-6.34846912 9.51441784 -2.95847594 5.40686982 0 0 Z " fill="#9DA2A3" transform="translate(174,150)"/>
<path d="M0 0 C6.18397275 2.16833023 12.61444162 4.99514762 17 10 C19.48034775 16.00684639 19.03892624 22.90597716 17 29 C14.51931196 32.38839434 11.82376544 33.45470246 8 35 C6.23826997 36.12771509 4.48803171 37.27359288 2.75 38.4375 C0.21420652 40.09073791 -1.24042295 41.00910452 -4.28125 40.97265625 C-8.29462799 39.53683567 -11.68387327 37.30900292 -15.25 35 C-15.9821875 34.5359375 -16.714375 34.071875 -17.46875 33.59375 C-22.8067602 30.1932398 -22.8067602 30.1932398 -24 29 C-25.12521752 22.9109412 -25.65489335 16.0087601 -24 10 C-20.84255626 5.70397459 -15.78866453 3.97609603 -11 2 C-10.15824219 1.4225 -9.31648438 0.845 -8.44921875 0.25 C-5.08909139 -1.46489754 -3.61364596 -1.0362021 0 0 Z M-8 2 C-8 2.66 -8 3.32 -8 4 C-8.71542969 4.12375 -9.43085937 4.2475 -10.16796875 4.375 C-15.3132532 5.51051105 -19.52593727 6.88406282 -23 11 C-24.28610064 16.54761248 -23.56193222 22.39316523 -23 28 C-21.35 28.33 -19.7 28.66 -18 29 C-18 29.66 -18 30.32 -18 31 C-15.78268064 32.39820138 -13.55461846 33.76763358 -11.3125 35.125 C-10.68666016 35.52332031 -10.06082031 35.92164063 -9.41601562 36.33203125 C-5.62896095 38.62250409 -5.62896095 38.62250409 -1.35546875 38.42578125 C-0.57816406 37.95527344 0.19914062 37.48476562 1 37 C1.825 36.53722656 2.65 36.07445312 3.5 35.59765625 C4.325 35.09105469 5.15 34.58445313 6 34.0625 C6.825 33.55847656 7.65 33.05445313 8.5 32.53515625 C9.325 32.02855469 10.15 31.52195312 11 31 C11.90105469 30.5978125 12.80210937 30.195625 13.73046875 29.78125 C16.33134016 28.08962321 16.33134016 28.08962321 17.05078125 24.55859375 C17.48702106 20.24087078 17.66089779 16.07284497 16 12 C11.38570419 6.72436699 -0.91867135 -1.54066433 -8 2 Z " fill="#484E4F" transform="translate(116,61)"/>
<path d="M0 0 C0 0.66 0 1.32 0 2 C-2.31 2.33 -4.62 2.66 -7 3 C-4.69 3 -2.38 3 0 3 C0 3.66 0 4.32 0 5 C-8.415 5.495 -8.415 5.495 -17 6 C-11.39 6 -5.78 6 0 6 C0 6.66 0 7.32 0 8 C-7.87347404 9.08806442 -15.62279003 9.11529603 -23.5625 9.0625 C-25.50479492 9.05573242 -25.50479492 9.05573242 -27.48632812 9.04882812 C-30.657601 9.03712601 -33.82877546 9.02073113 -37 9 C-37 8.34 -37 7.68 -37 7 C-36.34 6.67 -35.68 6.34 -35 6 C-35.66 6 -36.32 6 -37 6 C-37 5.34 -37 4.68 -37 4 C-31.06 4 -25.12 4 -19 4 C-19 3.34 -19 2.68 -19 2 C-24.94 2 -30.88 2 -37 2 C-37 1.67 -37 1.34 -37 1 C-32.70845211 0.8301808 -28.41674622 0.6647247 -24.125 0.5 C-22.92101562 0.45230469 -21.71703125 0.40460938 -20.4765625 0.35546875 C-13.64675751 0.09563921 -6.83478004 -0.07105171 0 0 Z " fill="#EFEFEE" transform="translate(131,75)"/>
<path d="M0 0 C0.14500644 3.60374463 0.23396763 7.20674242 0.3125 10.8125 C0.35439453 11.83666016 0.39628906 12.86082031 0.43945312 13.91601562 C0.48498965 16.69374344 0.47512223 19.26211537 0 22 C-2.84315851 24.68123659 -4.12582954 25 -8 25 C-9.02019573 24.0206121 -10.02149805 23.02104551 -11 22 C-11.66 22 -12.32 22 -13 22 C-13.33 21.34 -13.66 20.68 -14 20 C-16.52733235 19.34444881 -16.52733235 19.34444881 -19 19 C-19.33 19.66 -19.66 20.32 -20 21 C-20.33 19.68 -20.66 18.36 -21 17 C-19.54182203 16.83197949 -18.0834516 16.66562857 -16.625 16.5 C-15.81289062 16.4071875 -15.00078125 16.314375 -14.1640625 16.21875 C-12 16 -12 16 -10 16 C-8.29006566 14.3777546 -6.62652316 12.70586575 -5 11 C-4 10 -3 9 -2 8 C-2.99 8 -3.98 8 -5 8 C-4.67 6.68 -4.34 5.36 -4 4 C-4.66 3.67 -5.32 3.34 -6 3 C-2.25 0 -2.25 0 0 0 Z " fill="#CFCFCA" transform="translate(132,99)"/>
<path d="M0 0 C5.61 0 11.22 0 17 0 C17 0.66 17 1.32 17 2 C17.66 2 18.32 2 19 2 C19 1.34 19 0.68 19 0 C24.94 0 30.88 0 37 0 C37.495 2.475 37.495 2.475 38 5 C37.505 4.01 37.505 4.01 37 3 C36.44199707 3.0714624 35.88399414 3.1429248 35.30908203 3.21655273 C27.81936668 4.07947526 20.40716659 4.11491872 12.875 4.0625 C11.01101562 4.05573242 11.01101562 4.05573242 9.109375 4.04882812 C6.07286498 4.03714924 3.03645912 4.0207714 0 4 C0 2.68 0 1.36 0 0 Z " fill="#D5D5D3" transform="translate(94,72)"/>
<path d="M0 0 C0 8.58 0 17.16 0 26 C-0.33 26 -0.66 26 -1 26 C-1.33 21.71 -1.66 17.42 -2 13 C-4.31 12.67 -6.62 12.34 -9 12 C-9 11.01 -9 10.02 -9 9 C-10.32 9.33 -11.64 9.66 -13 10 C-13 9.01 -13 8.02 -13 7 C-9.55096099 3.75384564 -4.92819189 0 0 0 Z " fill="#BCBDBB" transform="translate(132,131)"/>
<path d="M0 0 C12.21 0 24.42 0 37 0 C36.67 1.65 36.34 3.3 36 5 C30.06 5 24.12 5 18 5 C18 4.34 18 3.68 18 3 C12.06 2.67 6.12 2.34 0 2 C0 1.34 0 0.68 0 0 Z " fill="#ECEBEB" transform="translate(94,85)"/>
<path d="M0 0 C1.21236328 0.02707031 1.21236328 0.02707031 2.44921875 0.0546875 C3.37154297 0.08949219 3.37154297 0.08949219 4.3125 0.125 C4.3125 0.455 4.3125 0.785 4.3125 1.125 C12.5625 1.125 20.8125 1.125 29.3125 1.125 C29.3125 1.785 29.3125 2.445 29.3125 3.125 C21.43902596 4.21306442 13.68970997 4.24029603 5.75 4.1875 C3.80770508 4.18073242 3.80770508 4.18073242 1.82617188 4.17382812 C-1.345101 4.16212601 -4.51627546 4.14573113 -7.6875 4.125 C-7.6875 3.465 -7.6875 2.805 -7.6875 2.125 C-4.48369983 -0.01086678 -3.66810033 -0.10632175 0 0 Z " fill="#E3E3E2" transform="translate(101.6875,79.875)"/>
<path d="M0 0 C3.7895406 0.94738515 6.37009279 2.17136144 9.75 4.0625 C10.73484375 4.61035156 11.7196875 5.15820312 12.734375 5.72265625 C13.48203125 6.14417969 14.2296875 6.56570312 15 7 C15 7.66 15 8.32 15 9 C9.99554115 7.53528034 6.74177759 5.70958719 2 3 C2 11.91 2 20.82 2 30 C1.34 30 0.68 30 0 30 C0 20.1 0 10.2 0 0 Z " fill="#5F6568" transform="translate(91,128)"/>
<path d="M0 0 C6.6 0 13.2 0 20 0 C20 0.99 20 1.98 20 3 C13.8976378 7.1496063 13.8976378 7.1496063 10 6.5 C6.57535047 4.78767524 3.28367147 2.97020288 0 1 C0 0.67 0 0.34 0 0 Z " fill="#D7D5D6" transform="translate(101,93)"/>
<path d="M0 0 C0.99 0.33 1.98 0.66 3 1 C2.67 2.32 2.34 3.64 2 5 C2.99 5 3.98 5 5 5 C4.67 6.32 4.34 7.64 4 9 C3.443125 9.061875 2.88625 9.12375 2.3125 9.1875 C-0.94987173 10.33373872 -2.68667874 12.49390197 -5 15 C-5 14.34 -5 13.68 -5 13 C-7.31 13.33 -9.62 13.66 -12 14 C-12.33 13.34 -12.66 12.68 -13 12 C-12.01 12 -11.02 12 -10 12 C-10.33 11.01 -10.66 10.02 -11 9 C-9.68 8.67 -8.36 8.34 -7 8 C-7.33 8.99 -7.66 9.98 -8 11 C-6.68 11.33 -5.36 11.66 -4 12 C-3.67 10.35 -3.34 8.7 -3 7 C-2.34 7 -1.68 7 -1 7 C-1.33 5.02 -1.66 3.04 -2 1 C-1.34 0.67 -0.68 0.34 0 0 Z " fill="#AEAEAE" transform="translate(125,102)"/>
<path d="M0 0 C3 2 3 2 3.6875 4.125 C3.8421875 5.053125 3.8421875 5.053125 4 6 C2.26041859 7.20271059 0.50790255 8.3867301 -1.25 9.5625 C-2.71179688 10.55443359 -2.71179688 10.55443359 -4.203125 11.56640625 C-7 13 -7 13 -9.359375 12.71484375 C-9.90078125 12.47894531 -10.4421875 12.24304688 -11 12 C-10.67 11.34 -10.34 10.68 -10 10 C-9.34 10 -8.68 10 -8 10 C-8 8.68 -8 7.36 -8 6 C-6.68 6.33 -5.36 6.66 -4 7 C-4 6.01 -4 5.02 -4 4 C-3.34 4 -2.68 4 -2 4 C-2 3.34 -2 2.68 -2 2 C-1.34 2 -0.68 2 0 2 C0 1.34 0 0.68 0 0 Z " fill="#B0AFAF" transform="translate(121,119)"/>
<path d="M0 0 C6.75196454 2.25065485 6.75196454 2.25065485 9.54296875 3.875 C10.14173828 4.22046875 10.74050781 4.5659375 11.35742188 4.921875 C11.96134766 5.27765625 12.56527344 5.6334375 13.1875 6 C13.80302734 6.35578125 14.41855469 6.7115625 15.05273438 7.078125 C17.7574968 8.64882127 20.39679546 10.26453031 23 12 C21.3359375 12.703125 21.3359375 12.703125 19 13 C16.4140625 11.671875 16.4140625 11.671875 13.625 9.75 C9.77014268 7.12218177 6.23512756 5.11756378 2 3 C1.67 10.59 1.34 18.18 1 26 C0.67 26 0.34 26 0 26 C0 17.42 0 8.84 0 0 Z " fill="#858989" transform="translate(91,96)"/>
<path d="M0 0 C0.625 2.375 0.625 2.375 1 5 C0.34 5.66 -0.32 6.32 -1 7 C-1.33 6.67 -1.66 6.34 -2 6 C-2.33 7.32 -2.66 8.64 -3 10 C-4.32 9.67 -5.64 9.34 -7 9 C-7 8.34 -7 7.68 -7 7 C-7.99 7.495 -7.99 7.495 -9 8 C-9 8.66 -9 9.32 -9 10 C-9.99 10 -10.98 10 -12 10 C-12.33 9.01 -12.66 8.02 -13 7 C-11.21190303 5.82786955 -9.41940875 4.66244474 -7.625 3.5 C-6.62726563 2.8503125 -5.62953125 2.200625 -4.6015625 1.53125 C-2 0 -2 0 0 0 Z " fill="#C8C7C5" transform="translate(124,104)"/>
<path d="M0 0 C0.66 0 1.32 0 2 0 C2 7.26 2 14.52 2 22 C0.02 22.99 -1.96 23.98 -4 25 C-4.12375 24.360625 -4.2475 23.72125 -4.375 23.0625 C-4.58125 22.381875 -4.7875 21.70125 -5 21 C-5.66 20.67 -6.32 20.34 -7 20 C-6.505 18.515 -6.505 18.515 -6 17 C-5.34 17.33 -4.68 17.66 -4 18 C-3.34 17.34 -2.68 16.68 -2 16 C-2 16.66 -2 17.32 -2 18 C-1.01 18 -0.02 18 1 18 C0.67 12.06 0.34 6.12 0 0 Z " fill="#ADADAD" transform="translate(130,99)"/>
<path d="M0 0 C0.66 0 1.32 0 2 0 C1.67 1.32 1.34 2.64 1 4 C2.32 4.66 3.64 5.32 5 6 C2.00519083 6.8723412 -0.63575911 7.10829766 -3.75 7.0625 C-4.54921875 7.05347656 -5.3484375 7.04445313 -6.171875 7.03515625 C-6.77515625 7.02355469 -7.3784375 7.01195313 -8 7 C-8 7.66 -8 8.32 -8 9 C-8.66 9 -9.32 9 -10 9 C-10 6.36 -10 3.72 -10 1 C-7.525 1.495 -7.525 1.495 -5 2 C-5 2.66 -5 3.32 -5 4 C-4.01 4 -3.02 4 -2 4 C-2 3.34 -2 2.68 -2 2 C-1.34 2 -0.68 2 0 2 C0 1.34 0 0.68 0 0 Z " fill="#D4D3CF" transform="translate(104,106)"/>
<path d="M0 0 C4.23429756 1.31061591 8.07407404 2.94356259 12 5 C11.01 5.495 11.01 5.495 10 6 C10 6.66 10 7.32 10 8 C9.34 8 8.68 8 8 8 C8 8.66 8 9.32 8 10 C7.01 10 6.02 10 5 10 C4.34 7.69 3.68 5.38 3 3 C2.67 3.66 2.34 4.32 2 5 C1.34 5 0.68 5 0 5 C0 3.35 0 1.7 0 0 Z " fill="#C0BFBE" transform="translate(94,100)"/>
<path d="M0 0 C0.33 0 0.66 0 1 0 C2.37016791 17.08480974 2.37016791 17.08480974 -0.7578125 21.45703125 C-3.11788816 22.97307985 -5.38224164 24.00275872 -8 25 C-9.32409443 25.79346483 -10.63813659 26.604153 -11.9375 27.4375 C-12.948125 27.953125 -13.95875 28.46875 -15 29 C-15.66 28.67 -16.32 28.34 -17 28 C-14.79897211 26.53264807 -12.59769269 25.06571073 -10.39453125 23.6015625 C-8.96863005 22.64786023 -7.54746134 21.68692294 -6.13671875 20.7109375 C-2.20683453 18 -2.20683453 18 0 18 C0 12.06 0 6.12 0 0 Z " fill="#3E4648" transform="translate(132,71)"/>
<path d="M0 0 C2.375 2.0625 2.375 2.0625 4 4 C2.27185839 4.19672365 0.54240803 4.38196799 -1.1875 4.5625 C-2.15042969 4.66691406 -3.11335938 4.77132812 -4.10546875 4.87890625 C-6.94233377 4.99758751 -9.25423671 4.67765639 -12 4 C-11.67 3.34 -11.34 2.68 -11 2 C-10.01 2 -9.02 2 -8 2 C-8 1.34 -8 0.68 -8 0 C-5.02898609 -1.48550695 -3.16565278 -0.82306972 0 0 Z " fill="#DFDEDD" transform="translate(116,63)"/>
<path d="M0 0 C1.65 0 3.3 0 5 0 C5 0.66 5 1.32 5 2 C5.9590625 2.3403125 5.9590625 2.3403125 6.9375 2.6875 C10.39862287 4.17083837 13.56794501 5.98162473 16.81640625 7.87890625 C18.89178726 8.94444176 20.72245723 9.54035985 23 10 C22.34 10.66 21.68 11.32 21 12 C15.88605626 11.84819462 11.849692 8.67808601 7.6875 6 C6.94693359 5.5359375 6.20636719 5.071875 5.44335938 4.59375 C1.46688866 2.07226442 1.46688866 2.07226442 0 1 C0 0.67 0 0.34 0 0 Z " fill="#585D5D" transform="translate(93,90)"/>
<path d="M0 0 C3.5624827 -0.02913821 7.12493454 -0.04684529 10.6875 -0.0625 C12.19860352 -0.07506836 12.19860352 -0.07506836 13.74023438 -0.08789062 C14.71669922 -0.09111328 15.69316406 -0.09433594 16.69921875 -0.09765625 C18.04246216 -0.10551147 18.04246216 -0.10551147 19.4128418 -0.11352539 C22.03641759 0.00159802 24.44293053 0.41765715 27 1 C26.67 1.66 26.34 2.32 26 3 C17.10456358 3.19865739 8.67089803 3.33447255 0 1 C0 0.67 0 0.34 0 0 Z " fill="#EBEBEA" transform="translate(98,91)"/>
<path d="M0 0 C0 0.66 0 1.32 0 2 C-2.7110326 4.15898002 -5.73536115 5.87797773 -8.6875 7.6875 C-9.50412109 8.21150391 -10.32074219 8.73550781 -11.16210938 9.27539062 C-11.95810547 9.76587891 -12.75410156 10.25636719 -13.57421875 10.76171875 C-14.30213623 11.21506592 -15.03005371 11.66841309 -15.7800293 12.13549805 C-18.56066651 13.218335 -20.17634008 12.812651 -23 12 C-23 11.67 -23 11.34 -23 11 C-22.16984375 10.76539063 -21.3396875 10.53078125 -20.484375 10.2890625 C-16.378812 8.77018829 -12.94208302 6.69615239 -9.25 4.375 C-2.25805215 0 -2.25805215 0 0 0 Z " fill="#4E5757" transform="translate(132,121)"/>
<path d="M0 0 C7.11791847 3.81607036 14.11027102 7.78545863 21 12 C18 13 18 13 15.9152832 12.10375977 C14.74485474 11.40464478 14.74485474 11.40464478 13.55078125 10.69140625 C12.70322266 10.19189453 11.85566406 9.69238281 10.98242188 9.17773438 C9.66081055 8.37819336 9.66081055 8.37819336 8.3125 7.5625 C7.41982422 7.03333984 6.52714844 6.50417969 5.60742188 5.95898438 C3.39936708 4.64832083 1.19739605 3.3284301 -1 2 C-0.67 1.34 -0.34 0.68 0 0 Z " fill="#555B5D" transform="translate(93,157)"/>
<path d="M0 0 C0.99 0.495 0.99 0.495 2 1 C2 1.99 2 2.98 2 4 C2.66 4 3.32 4 4 4 C4.33 5.65 4.66 7.3 5 9 C3.68 8.67 2.36 8.34 1 8 C1.185625 8.928125 1.37125 9.85625 1.5625 10.8125 C2 14 2 14 1 17 C1.66 17 2.32 17 3 17 C3 17.66 3 18.32 3 19 C2.34 19 1.68 19 1 19 C0.67 19.99 0.34 20.98 0 22 C0 14.74 0 7.48 0 0 Z " fill="#99999A" transform="translate(93,99)"/>
<path d="M0 0 C5.10454793 0.5537478 8.96575557 3.02592796 13.3125 5.5625 C14.05306641 5.98724609 14.79363281 6.41199219 15.55664062 6.84960938 C17.37468118 7.89351653 19.18783748 8.94592192 21 10 C20.67 10.99 20.34 11.98 20 13 C16.66314294 11.02672828 13.33112968 9.04542247 10 7.0625 C9.04609375 6.49853516 8.0921875 5.93457031 7.109375 5.35351562 C5.75585938 4.54624023 5.75585938 4.54624023 4.375 3.72265625 C3.53710938 3.22515869 2.69921875 2.72766113 1.8359375 2.21508789 C1.23007813 1.81410889 0.62421875 1.41312988 0 1 C0 0.67 0 0.34 0 0 Z " fill="#515556" transform="translate(111,60)"/>
<path d="M0 0 C6.6 0 13.2 0 20 0 C20 0.99 20 1.98 20 3 C17.41603321 3.08112454 14.83462432 3.14054748 12.25 3.1875 C11.52039063 3.21263672 10.79078125 3.23777344 10.0390625 3.26367188 C5.21268124 3.32948616 4.05133161 3.03849871 0 0 Z " fill="#B4B4B4" transform="translate(101,93)"/>
<path d="M0 0 C0.99 0 1.98 0 3 0 C3 3.3 3 6.6 3 10 C2.01 10 1.02 10 0 10 C1 8 1 8 2 7 C1.01 7 0.02 7 -1 7 C-0.67 5.68 -0.34 4.36 0 3 C-0.66 2.67 -1.32 2.34 -2 2 C-1.34 1.34 -0.68 0.68 0 0 Z " fill="#C7C7C4" transform="translate(128,100)"/>
<path d="M0 0 C0.99 0.33 1.98 0.66 3 1 C3 2.32 3 3.64 3 5 C0.36 5.66 -2.28 6.32 -5 7 C-5 6.01 -5 5.02 -5 4 C-4.01 4 -3.02 4 -2 4 C-2 3.01 -2 2.02 -2 1 C-1.34 0.67 -0.68 0.34 0 0 Z " fill="#C6C6C1" transform="translate(99,114)"/>
<path d="M0 0 C0.33 1.65 0.66 3.3 1 5 C-0.32 5 -1.64 5 -3 5 C-3 4.34 -3 3.68 -3 3 C-4.32 3 -5.64 3 -7 3 C-7.33 3.99 -7.66 4.98 -8 6 C-8 5.34 -8 4.68 -8 4 C-8.66 3.67 -9.32 3.34 -10 3 C-9.34 3 -8.68 3 -8 3 C-8 2.34 -8 1.68 -8 1 C-5.23735711 0.40267181 -2.83967231 0 0 0 Z " fill="#AAA9AA" transform="translate(104,112)"/>
<path d="M0 0 C0 0.33 0 0.66 0 1 C-4.62 1 -9.24 1 -14 1 C-14 0.34 -14 -0.32 -14 -1 C-4.58997722 -2.51708428 -4.58997722 -2.51708428 0 0 Z " fill="#EDECEC" transform="translate(127,70)"/>
<path d="M0 0 C0.33 0.66 0.66 1.32 1 2 C0.34 2 -0.32 2 -1 2 C-1 2.99 -1 3.98 -1 5 C-2.32 4.67 -3.64 4.34 -5 4 C-5 5.32 -5 6.64 -5 8 C-6.32 8.33 -7.64 8.66 -9 9 C-8.505 7.824375 -8.505 7.824375 -8 6.625 C-6.88133489 4.15667503 -6.88133489 4.15667503 -7 2 C-5.35 2.33 -3.7 2.66 -2 3 C-2 2.34 -2 1.68 -2 1 C-1.34 0.67 -0.68 0.34 0 0 Z " fill="#CECDC6" transform="translate(118,121)"/>
<path d="M0 0 C5.75 1.75 5.75 1.75 8 4 C6.34385343 4.38218767 4.67542976 4.71395102 3 5 C2.67 4.67 2.34 4.34 2 4 C1.01 4.495 1.01 4.495 0 5 C0 3.35 0 1.7 0 0 Z " fill="#B5B5B5" transform="translate(94,100)"/>
<path d="M0 0 C1.32 0.33 2.64 0.66 4 1 C4 2.65 4 4.3 4 6 C3.34 6 2.68 6 2 6 C2 6.66 2 7.32 2 8 C1.34 8 0.68 8 0 8 C0 5.36 0 2.72 0 0 Z " fill="#CAC9C7" transform="translate(94,107)"/>
<path d="M0 0 C0.33 0.66 0.66 1.32 1 2 C2.65 1.67 4.3 1.34 6 1 C4.515 3.475 4.515 3.475 3 6 C1.02 5.01 -0.96 4.02 -3 3 C-2.01 2.01 -1.02 1.02 0 0 Z " fill="#AAAAAA" transform="translate(106,124)"/>
<path d="M0 0 C0.66 0.66 1.32 1.32 2 2 C0.54735962 2.8638129 -0.9123163 3.71580454 -2.375 4.5625 C-3.59316406 5.27599609 -3.59316406 5.27599609 -4.8359375 6.00390625 C-5.55007812 6.33261719 -6.26421875 6.66132813 -7 7 C-7.66 6.67 -8.32 6.34 -9 6 C-6.03 4.02 -3.06 2.04 0 0 Z " fill="#4E5659" transform="translate(131,157)"/>
<path d="M0 0 C3.3 1.65 6.6 3.3 10 5 C9.34 5.66 8.68 6.32 8 7 C6.66144944 6.21718695 5.32926356 5.42348123 4 4.625 C3.2575 4.18414062 2.515 3.74328125 1.75 3.2890625 C1.1725 2.86367187 0.595 2.43828125 0 2 C0 1.34 0 0.68 0 0 Z " fill="#4E5556" transform="translate(92,96)"/>
<path d="M0 0 C3.96 1.98 3.96 1.98 8 4 C8 4.66 8 5.32 8 6 C4.22454612 4.90931332 1.52956528 4.0916909 -1 1 C-0.67 0.67 -0.34 0.34 0 0 Z " fill="#4B5255" transform="translate(93,157)"/>
<path d="M0 0 C0.33 1.65 0.66 3.3 1 5 C-1.31 4.34 -3.62 3.68 -6 3 C-2.25 0 -2.25 0 0 0 Z " fill="#BEBDBC" transform="translate(124,104)"/>
<path d="M0 0 C3.1875 0.3125 3.1875 0.3125 6 1 C6 1.66 6 2.32 6 3 C3.03 3 0.06 3 -3 3 C-2.01 2.01 -1.02 1.02 0 0 Z " fill="#9FA1A1" transform="translate(103,66)"/>
<path d="M0 0 C5.75 0.75 5.75 0.75 8 3 C5.03 3 2.06 3 -1 3 C-0.67 2.01 -0.34 1.02 0 0 Z " fill="#AAACAA" transform="translate(110,62)"/>
<path d="M0 0 C4.31392226 0.4793247 6.16569547 1.7457985 9 5 C4.68607774 4.5206753 2.83430453 3.2542015 0 0 Z " fill="#454C4E" transform="translate(102,127)"/>
<path d="M0 0 C0.99 0 1.98 0 3 0 C3 0.66 3 1.32 3 2 C3.99 2.33 4.98 2.66 6 3 C5 4 5 4 2.4375 4.0625 C1.2309375 4.0315625 1.2309375 4.0315625 0 4 C0 2.68 0 1.36 0 0 Z " fill="#C2C3C0" transform="translate(94,72)"/>
<path d="M0 0 C0.66 0 1.32 0 2 0 C0.95125002 2.62187494 0.35068687 3.79371361 -2.125 5.25 C-2.74375 5.4975 -3.3625 5.745 -4 6 C-2.84826645 3.53199953 -1.95216435 1.95216435 0 0 Z " fill="#515C5C" transform="translate(57,55)"/>
</svg>
